<?xml version="1.0" standalone="no"?>
<!DOCTYPE svg PUBLIC "-//W3C//DTD SVG 20010904//EN"
 "http://www.w3.org/TR/2001/REC-SVG-20010904/DTD/svg10.dtd">
<svg version="1.0" xmlns="http://www.w3.org/2000/svg"
 width="185.000000pt" height="185.000000pt" viewBox="0 0 185.000000 185.000000"
 preserveAspectRatio="xMidYMid meet">

<g transform="translate(0.000000,185.000000) scale(0.100000,-0.100000)"
fill="#000000" stroke="none">
<path d="M0 1660 c0 -104 2 -190 4 -190 5 0 216 366 216 374 0 3 -49 6 -110 6
l-110 0 0 -190z"/>
<path d="M1610 1846 c0 -4 230 -408 236 -415 2 -2 4 91 4 207 l0 212 -120 0
c-66 0 -120 -2 -120 -4z"/>
<path d="M516 1726 c-20 -6 -49 -23 -64 -37 -31 -31 -398 -671 -412 -720 -14
-49 -2 -82 100 -258 l91 -159 -25 -74 c-14 -41 -26 -81 -26 -88 0 -17 -61
-150 -69 -150 -3 0 -28 38 -54 85 -27 47 -50 85 -53 85 -2 0 -4 -92 -4 -205
l0 -205 49 0 49 0 4 73 c2 39 12 89 21 110 16 37 16 37 77 37 91 0 197 -26
203 -51 3 -12 0 -19 -10 -19 -8 0 -17 -9 -20 -20 -6 -23 -61 -50 -100 -50 -31
0 -65 -18 -58 -31 4 -5 17 -9 30 -9 13 0 27 -4 30 -10 3 -5 38 -10 76 -10 44
0 68 -4 64 -10 -4 -6 14 -10 46 -10 l52 0 -21 23 c-46 49 -53 110 -19 171 36
65 123 72 202 17 60 -42 340 -125 413 -122 12 0 22 -4 22 -9 0 -6 10 -8 23 -5
22 5 108 16 137 16 8 1 22 3 30 6 43 16 137 27 157 18 10 -5 24 -7 31 -6 7 1
42 -12 77 -29 95 -46 111 -37 46 28 -30 28 -58 52 -64 52 -18 0 27 42 60 56
48 21 132 18 170 -5 26 -16 33 -30 43 -76 7 -32 10 -75 8 -96 -2 -27 0 -39 9
-39 10 0 13 49 13 223 l0 222 -31 -54 -32 -55 -19 24 c-11 14 -17 32 -14 44 3
11 1 25 -3 30 -5 6 -14 37 -20 69 -6 32 -20 79 -31 104 -11 25 -20 51 -20 59
0 7 27 61 60 121 90 162 99 128 -141 548 -157 273 -209 356 -235 375 l-35 23
-388 2 c-248 1 -401 -3 -425 -9z m349 -221 c44 0 90 3 103 7 16 6 24 3 28 -7
4 -8 10 -15 15 -15 4 0 6 7 3 15 -4 10 0 15 11 15 12 0 15 -5 11 -16 -5 -14
-4 -15 8 -5 12 10 17 2 31 -46 9 -32 20 -62 25 -68 18 -23 30 -86 32 -159 1
-67 -1 -80 -17 -89 -10 -5 -29 -21 -42 -35 -13 -14 -23 -19 -23 -13 0 7 -6 11
-12 8 -7 -2 -12 -11 -10 -18 1 -9 -3 -8 -11 3 -8 10 -17 14 -21 10 -4 -4 -13
1 -20 10 -6 9 -27 23 -46 32 -19 9 -25 14 -13 12 20 -3 20 -1 11 28 -14 42
-32 60 -22 22 7 -27 6 -28 -25 -21 -23 5 -32 3 -37 -9 -7 -18 -44 -22 -44 -5
0 5 6 7 13 3 9 -5 9 -4 0 6 -14 15 -34 5 -27 -14 3 -8 -8 -24 -26 -37 -17 -13
-34 -37 -39 -54 -5 -16 -10 -22 -10 -12 -1 9 -8 17 -16 17 -9 0 -18 7 -22 17
-5 14 -8 13 -14 -5 -8 -21 -14 -22 -143 -22 -175 0 -175 -1 -85 157 113 196
148 249 176 263 15 8 32 16 37 18 4 3 7 -15 6 -39 -2 -24 -1 -93 0 -154 3 -94
4 -102 10 -55 7 55 7 55 8 11 2 -40 4 -43 27 -39 13 3 22 1 19 -3 -7 -12 -2
-11 38 5 30 13 58 49 58 77 0 5 -10 14 -22 19 -13 5 -17 9 -10 9 6 1 12 8 12
16 0 10 -11 15 -35 16 -19 1 -39 3 -45 4 -5 1 -14 3 -19 4 -16 2 -20 29 -8 68
6 21 16 41 22 45 5 4 11 12 11 18 1 5 2 13 3 16 0 3 16 2 34 -3 17 -4 68 -8
112 -8z m372 -33 c22 -14 223 -353 223 -376 0 -30 -26 -36 -147 -36 l-123 0
-20 33 c-11 17 -15 33 -10 35 6 2 6 10 0 22 -7 13 -4 24 10 43 25 32 25 57 0
64 -17 5 -18 8 -7 29 9 17 11 49 6 111 -4 49 -5 91 -3 95 5 8 44 -2 71 -20z
m-527 -152 c0 -5 -8 -10 -17 -10 -15 0 -16 2 -3 10 19 12 20 12 20 0z m230
-275 c18 -22 4 -54 -23 -48 -18 4 -19 3 -7 -6 12 -9 11 -11 -8 -11 -13 0 -21
-4 -18 -8 3 -5 -1 -9 -9 -9 -8 0 -15 6 -15 14 0 7 6 13 14 13 17 0 31 33 16
38 -7 3 -4 10 7 18 23 17 28 17 43 -1z m-123 -17 c-3 -9 4 -26 14 -37 23 -25
24 -28 2 -26 -29 2 -61 24 -68 45 -9 27 -2 35 30 35 19 0 25 -4 22 -17z m308
-104 c-12 -18 -22 -24 -38 -20 -12 3 -17 3 -10 0 11 -5 -13 -50 -47 -91 -5 -7
-10 -18 -10 -25 -1 -32 -40 -98 -58 -98 -43 0 -162 78 -162 107 0 7 -4 13 -9
13 -7 0 -31 73 -31 95 0 3 19 -4 43 -17 56 -28 145 -28 181 1 8 7 21 9 28 5 7
-4 10 -4 7 0 -4 4 21 35 55 69 l61 62 3 -38 c2 -24 -3 -48 -13 -63z m-195
-454 c0 -5 -8 -10 -17 -10 -15 0 -16 2 -3 10 19 12 20 12 20 0z m528 -104 c2
-11 -14 -35 -42 -61 l-45 -44 79 36 c44 19 86 33 95 30 25 -10 18 -43 -12 -56
-16 -7 -41 -23 -58 -37 l-30 -26 30 16 c17 9 38 22 47 28 14 10 21 9 35 -4 16
-16 16 -19 -2 -37 -22 -26 -115 -61 -158 -61 -18 0 -39 -6 -46 -13 -11 -10
-12 -9 -6 1 4 8 28 27 53 43 51 32 46 39 -8 10 -58 -31 -78 -34 -97 -16 -15
16 -15 19 3 54 24 45 134 163 148 158 6 -2 13 -12 14 -21z m-240 -25 c12 -11
21 -27 21 -38 -1 -16 -2 -16 -6 0 -2 9 -9 17 -14 17 -6 0 -7 -4 -4 -10 3 -5 0
-10 -9 -10 -27 0 -46 12 -46 29 0 36 23 40 58 12z m62 -179 c0 -5 -7 -9 -15
-9 -8 0 -12 4 -9 9 3 4 9 8 15 8 5 0 9 -4 9 -8z m224 -23 c-7 -11 -34 -12 -34
-1 0 14 11 21 26 15 8 -3 11 -9 8 -14z"/>
<path d="M901 1371 c-30 -8 -40 -31 -14 -32 15 0 14 -2 -4 -9 -27 -11 -27 -13
-7 -55 8 -18 31 -41 50 -51 35 -19 35 -19 82 6 56 30 66 59 27 80 -30 16 -33
30 -5 30 25 0 25 9 3 26 -19 14 -91 17 -132 5z m66 -37 c-3 -3 -12 -4 -19 -1
-8 3 -5 6 6 6 11 1 17 -2 13 -5z"/>
<path d="M652 1140 c0 -14 2 -19 5 -12 2 6 2 18 0 25 -3 6 -5 1 -5 -13z"/>
<path d="M1170 331 c0 -5 7 -11 15 -15 8 -3 15 -1 15 3 0 5 -7 11 -15 15 -8 3
-15 1 -15 -3z"/>
</g>
</svg>
